<mxfile host="Electron" agent="Mozilla/5.0 (Windows NT 10.0; Win64; x64) AppleWebKit/537.36 (KHTML, like Gecko) draw.io/24.7.8 Chrome/128.0.6613.36 Electron/32.0.1 Safari/537.36" version="24.7.8">
  <diagram name="Seite-1" id="sXgBdFNS4Iq4SZMFfz9C">
    <mxGraphModel dx="1674" dy="836" grid="1" gridSize="10" guides="1" tooltips="1" connect="1" arrows="1" fold="1" page="1" pageScale="1" pageWidth="827" pageHeight="1169" math="0" shadow="0">
      <root>
        <mxCell id="0" />
        <mxCell id="1" parent="0" />
        <mxCell id="lQyYDzL_I2UZiROKzIM_-1" value="Turn" style="shape=umlFrame;whiteSpace=wrap;html=1;pointerEvents=0;recursiveResize=0;container=1;collapsible=0;width=160;" parent="1" vertex="1">
          <mxGeometry y="160" width="1120" height="200" as="geometry" />
        </mxCell>
        <mxCell id="Uh5D1-d9lzjAH5gLcX9P-13" style="edgeStyle=orthogonalEdgeStyle;rounded=0;orthogonalLoop=1;jettySize=auto;html=1;entryX=0;entryY=0.5;entryDx=0;entryDy=0;" parent="lQyYDzL_I2UZiROKzIM_-1" source="Uh5D1-d9lzjAH5gLcX9P-6" target="Uh5D1-d9lzjAH5gLcX9P-7" edge="1">
          <mxGeometry relative="1" as="geometry" />
        </mxCell>
        <mxCell id="q4_EZUNwiwKdVfT21M7S-6" style="edgeStyle=orthogonalEdgeStyle;rounded=0;orthogonalLoop=1;jettySize=auto;html=1;exitX=0.75;exitY=0;exitDx=0;exitDy=0;entryX=0.5;entryY=0;entryDx=0;entryDy=0;" parent="lQyYDzL_I2UZiROKzIM_-1" source="Uh5D1-d9lzjAH5gLcX9P-6" target="Uh5D1-d9lzjAH5gLcX9P-2" edge="1">
          <mxGeometry relative="1" as="geometry" />
        </mxCell>
        <mxCell id="Uh5D1-d9lzjAH5gLcX9P-6" value="RollDice" style="rounded=1;whiteSpace=wrap;html=1;" parent="lQyYDzL_I2UZiROKzIM_-1" vertex="1">
          <mxGeometry x="320" y="70" width="120" height="60" as="geometry" />
        </mxCell>
        <mxCell id="Uh5D1-d9lzjAH5gLcX9P-12" style="edgeStyle=orthogonalEdgeStyle;rounded=0;orthogonalLoop=1;jettySize=auto;html=1;entryX=0;entryY=0.5;entryDx=0;entryDy=0;" parent="lQyYDzL_I2UZiROKzIM_-1" source="Uh5D1-d9lzjAH5gLcX9P-7" target="Uh5D1-d9lzjAH5gLcX9P-8" edge="1">
          <mxGeometry relative="1" as="geometry" />
        </mxCell>
        <mxCell id="Uh5D1-d9lzjAH5gLcX9P-7" value="ChoosePiece" style="rounded=1;whiteSpace=wrap;html=1;" parent="lQyYDzL_I2UZiROKzIM_-1" vertex="1">
          <mxGeometry x="570" y="70" width="120" height="60" as="geometry" />
        </mxCell>
        <mxCell id="q4_EZUNwiwKdVfT21M7S-1" style="edgeStyle=orthogonalEdgeStyle;rounded=0;orthogonalLoop=1;jettySize=auto;html=1;exitX=1;exitY=0.5;exitDx=0;exitDy=0;entryX=0;entryY=0.5;entryDx=0;entryDy=0;" parent="lQyYDzL_I2UZiROKzIM_-1" source="Uh5D1-d9lzjAH5gLcX9P-8" target="Uh5D1-d9lzjAH5gLcX9P-2" edge="1">
          <mxGeometry relative="1" as="geometry" />
        </mxCell>
        <mxCell id="q4_EZUNwiwKdVfT21M7S-4" style="edgeStyle=orthogonalEdgeStyle;rounded=0;orthogonalLoop=1;jettySize=auto;html=1;exitX=0.5;exitY=1;exitDx=0;exitDy=0;entryX=0.5;entryY=1;entryDx=0;entryDy=0;" parent="lQyYDzL_I2UZiROKzIM_-1" source="Uh5D1-d9lzjAH5gLcX9P-8" target="Uh5D1-d9lzjAH5gLcX9P-6" edge="1">
          <mxGeometry relative="1" as="geometry" />
        </mxCell>
        <mxCell id="Uh5D1-d9lzjAH5gLcX9P-8" value="MovePiece" style="rounded=1;whiteSpace=wrap;html=1;" parent="lQyYDzL_I2UZiROKzIM_-1" vertex="1">
          <mxGeometry x="760" y="70" width="120" height="60" as="geometry" />
        </mxCell>
        <mxCell id="Uh5D1-d9lzjAH5gLcX9P-2" value="" style="ellipse;whiteSpace=wrap;html=1;aspect=fixed;" parent="lQyYDzL_I2UZiROKzIM_-1" vertex="1">
          <mxGeometry x="1040" y="80" width="40" height="40" as="geometry" />
        </mxCell>
        <mxCell id="Uh5D1-d9lzjAH5gLcX9P-3" value="" style="ellipse;whiteSpace=wrap;html=1;aspect=fixed;fillColor=#000000;" parent="lQyYDzL_I2UZiROKzIM_-1" vertex="1">
          <mxGeometry x="1046.4099999999999" y="86.40999999999997" width="27.18" height="27.18" as="geometry" />
        </mxCell>
        <mxCell id="q4_EZUNwiwKdVfT21M7S-3" value="receiveEndOfTurn(msg)&lt;div&gt;receiveSpectator(msg)&lt;/div&gt;" style="text;html=1;align=center;verticalAlign=middle;resizable=0;points=[];autosize=1;strokeColor=none;fillColor=none;" parent="lQyYDzL_I2UZiROKzIM_-1" vertex="1">
          <mxGeometry x="885" y="65" width="150" height="40" as="geometry" />
        </mxCell>
        <mxCell id="q4_EZUNwiwKdVfT21M7S-7" value="receiveNoTurn(msg)" style="text;html=1;align=center;verticalAlign=middle;resizable=0;points=[];autosize=1;strokeColor=none;fillColor=none;" parent="lQyYDzL_I2UZiROKzIM_-1" vertex="1">
          <mxGeometry x="415" y="20" width="130" height="30" as="geometry" />
        </mxCell>
        <mxCell id="Uh5D1-d9lzjAH5gLcX9P-5" style="edgeStyle=orthogonalEdgeStyle;rounded=0;orthogonalLoop=1;jettySize=auto;html=1;entryX=0;entryY=0.5;entryDx=0;entryDy=0;" parent="lQyYDzL_I2UZiROKzIM_-1" source="Uh5D1-d9lzjAH5gLcX9P-1" target="Uh5D1-d9lzjAH5gLcX9P-4" edge="1">
          <mxGeometry relative="1" as="geometry" />
        </mxCell>
        <mxCell id="Uh5D1-d9lzjAH5gLcX9P-1" value="" style="ellipse;whiteSpace=wrap;html=1;aspect=fixed;fillColor=#000000;" parent="lQyYDzL_I2UZiROKzIM_-1" vertex="1">
          <mxGeometry x="40" y="80" width="40" height="40" as="geometry" />
        </mxCell>
        <mxCell id="Uh5D1-d9lzjAH5gLcX9P-4" value="PowerCard" style="rounded=1;whiteSpace=wrap;html=1;" parent="lQyYDzL_I2UZiROKzIM_-1" vertex="1">
          <mxGeometry x="120" y="70" width="120" height="60" as="geometry" />
        </mxCell>
        <mxCell id="Uh5D1-d9lzjAH5gLcX9P-14" style="edgeStyle=orthogonalEdgeStyle;rounded=0;orthogonalLoop=1;jettySize=auto;html=1;entryX=0;entryY=0.5;entryDx=0;entryDy=0;" parent="lQyYDzL_I2UZiROKzIM_-1" source="Uh5D1-d9lzjAH5gLcX9P-4" target="Uh5D1-d9lzjAH5gLcX9P-6" edge="1">
          <mxGeometry relative="1" as="geometry" />
        </mxCell>
        <mxCell id="q4_EZUNwiwKdVfT21M7S-8" style="edgeStyle=orthogonalEdgeStyle;rounded=0;orthogonalLoop=1;jettySize=auto;html=1;exitX=0;exitY=0;exitDx=0;exitDy=0;entryX=0.5;entryY=0;entryDx=0;entryDy=0;" parent="lQyYDzL_I2UZiROKzIM_-1" source="Uh5D1-d9lzjAH5gLcX9P-6" target="Uh5D1-d9lzjAH5gLcX9P-6" edge="1">
          <mxGeometry relative="1" as="geometry">
            <Array as="points">
              <mxPoint x="320" y="50" />
              <mxPoint x="380" y="50" />
            </Array>
          </mxGeometry>
        </mxCell>
        <mxCell id="q4_EZUNwiwKdVfT21M7S-10" value="receivedDice(msg)" style="text;html=1;align=center;verticalAlign=middle;resizable=0;points=[];autosize=1;strokeColor=none;fillColor=none;" parent="lQyYDzL_I2UZiROKzIM_-1" vertex="1">
          <mxGeometry x="440" y="70" width="120" height="30" as="geometry" />
        </mxCell>
        <mxCell id="q4_EZUNwiwKdVfT21M7S-9" value="requestDice()&lt;div&gt;receiveDiceAgain(msg)&lt;/div&gt;" style="text;html=1;align=center;verticalAlign=middle;resizable=0;points=[];autosize=1;strokeColor=none;fillColor=none;" parent="lQyYDzL_I2UZiROKzIM_-1" vertex="1">
          <mxGeometry x="230" y="15" width="150" height="40" as="geometry" />
        </mxCell>
        <mxCell id="q4_EZUNwiwKdVfT21M7S-5" value="receivedDiceAgain(msg)" style="text;html=1;align=center;verticalAlign=middle;resizable=0;points=[];autosize=1;strokeColor=none;fillColor=none;" parent="1" vertex="1">
          <mxGeometry x="685" y="318" width="150" height="30" as="geometry" />
        </mxCell>
      </root>
    </mxGraphModel>
  </diagram>
</mxfile>
